<?xml version="1.0" encoding="UTF-8"?>
<svg version="1.1" xmlns="http://www.w3.org/2000/svg" width="1862" height="933">
<path d="M0 0 C614.46 0 1228.92 0 1862 0 C1862 307.89 1862 615.78 1862 933 C1247.54 933 633.08 933 0 933 C0 625.11 0 317.22 0 0 Z " fill="#E2F8FE" transform="translate(0,0)"/>
<path d="M0 0 C1.25989675 -0.00507454 2.51979351 -0.01014909 3.81786895 -0.0153774 C5.23423239 -0.01597917 6.65059587 -0.01647822 8.06695938 -0.01688576 C9.55743788 -0.02089769 11.04791528 -0.02533545 12.53839135 -0.03016531 C16.65384787 -0.04216688 20.76929264 -0.04778753 24.88476324 -0.05234647 C29.31570174 -0.05828906 33.7466261 -0.06990226 38.17755508 -0.08063698 C48.88841025 -0.10519225 59.59927011 -0.11979291 70.31014478 -0.13269705 C73.33348297 -0.13640676 76.3568207 -0.14038017 79.38015842 -0.14444971 C98.13920701 -0.16968447 116.89825629 -0.19174601 135.65731812 -0.20417786 C140.00531136 -0.20710775 144.35330458 -0.21006938 148.70129776 -0.21308327 C149.78202325 -0.21382932 150.86274875 -0.21457537 151.9762235 -0.21534403 C169.49065188 -0.22800267 187.00497885 -0.2612306 204.5193598 -0.3028851 C222.48548345 -0.34526502 240.45155514 -0.36886835 258.41772866 -0.37409842 C268.51136211 -0.37751708 278.60483712 -0.38932556 288.69842148 -0.42220116 C297.29329774 -0.45014876 305.88798312 -0.46122436 314.4829013 -0.4500057 C318.87040755 -0.44480537 323.25751372 -0.4477943 327.64496231 -0.47247124 C331.6595943 -0.49486336 335.6735365 -0.49430298 339.68817976 -0.47526737 C341.14247818 -0.47245314 342.59682238 -0.47814447 344.05104682 -0.4930803 C346.02444239 -0.51211316 347.99807757 -0.49744128 349.97149658 -0.48101807 C351.61734069 -0.48305286 351.61734069 -0.48305286 353.29643416 -0.48512876 C357.18462863 0.3373862 358.68910294 2.17431823 361.23743057 5.13701439 C361.56743057 5.46701439 361.89743057 5.79701439 362.23743057 6.13701439 C362.34107036 9.03381298 362.37841067 11.90697057 362.37444496 14.80441475 C362.37709679 15.72929939 362.37974862 16.65418403 362.3824808 17.60709548 C362.39022091 20.74734777 362.39073476 23.88756127 362.39133072 27.02782249 C362.39534224 29.28551346 362.39977994 31.5432037 362.40461028 33.80089307 C362.4166162 40.03704258 362.4222335 46.27318433 362.42679143 52.50934315 C362.43212309 58.5340763 362.44210155 64.55880074 362.45180089 70.58352801 C362.47745651 86.73276422 362.49247112 102.88200521 362.50531136 119.03125595 C362.50956373 124.37857956 362.5141294 129.72590281 362.51889467 135.07322598 C362.54415243 163.48583674 362.5662076 191.89844806 362.57862282 220.31106758 C362.58154431 226.89693008 362.58451179 233.48279256 362.58752823 240.06865501 C362.58789914 240.88689213 362.58827005 241.70512924 362.5886522 242.54816142 C362.60081142 269.08555351 362.63176034 295.62287933 362.67344975 322.16024029 C362.71620678 349.42679853 362.74285994 376.69332178 362.74809753 403.95991446 C362.74883802 407.808552 362.74974871 411.65718948 362.75075531 415.50582695 C362.75094592 416.2633098 362.75113654 417.02079265 362.75133293 417.80122952 C362.75485103 430.00800401 362.7751698 442.21469572 362.80155195 454.42143977 C362.82765643 466.68433933 362.83544108 478.94714291 362.82445066 491.21006629 C362.81898883 497.85769438 362.82227243 504.50511407 362.8469162 511.1527195 C362.86926711 517.2323468 362.86877944 523.31151824 362.84971233 529.39115277 C362.84689235 531.59645244 362.85262036 533.8017821 362.86752526 536.0070332 C362.88648729 538.99400192 362.87493993 541.97932089 362.85546303 544.96624947 C362.86831225 545.83200985 362.88116147 546.69777024 362.89440006 547.58976579 C362.83063431 552.00900619 362.67135665 553.60941244 359.76130354 557.1476872 C358.92842546 557.80416517 358.09554738 558.46064314 357.23743057 559.13701439 C356.90743057 559.46701439 356.57743057 559.79701439 356.23743057 560.13701439 C354.31875136 560.23921799 352.39625616 560.26994509 350.47486115 560.27402878 C349.21496439 560.27910332 347.95506764 560.28417786 346.6569922 560.28940618 C345.24062876 560.29000795 343.82426527 560.290507 342.40790176 560.29091454 C340.91742327 560.29492646 339.42694586 560.29936423 337.93646979 560.30419409 C333.82101328 560.31619566 329.70556851 560.32181631 325.5900979 560.32637525 C321.15915941 560.33231784 316.72823505 560.34393104 312.29730606 560.35466576 C301.5864509 560.37922103 290.87559103 560.39382168 280.16471636 560.40672582 C277.14137817 560.41043554 274.11804045 560.41440895 271.09470272 560.41847849 C252.33565413 560.44371325 233.57660485 560.46577479 214.81754303 560.47820663 C210.46954979 560.48113652 206.12155657 560.48409816 201.77356339 560.48711205 C200.69283789 560.4878581 199.6121124 560.48860415 198.49863765 560.4893728 C180.98420927 560.50203145 163.4698823 560.53525938 145.95550135 560.57691388 C127.98937769 560.61929379 110.02330601 560.64289713 92.05713248 560.6481272 C81.96349903 560.65154586 71.87002403 560.66335434 61.77643967 560.69622993 C53.1815634 560.72417754 44.58687803 560.73525314 35.99195984 560.72403447 C31.60445359 560.71883415 27.21734743 560.72182308 22.82989883 560.74650002 C18.81526685 560.76889213 14.80132464 560.76833175 10.78668138 560.74929614 C9.33238297 560.74648192 7.87803877 560.75217325 6.42381433 560.76710908 C4.45041876 560.78614193 2.47678358 560.77147006 0.50336456 560.75504684 C-0.59386484 560.75640337 -1.69109424 560.7577599 -2.82157302 560.75915754 C-6.70976749 559.93664258 -8.21424179 558.09971054 -10.76256943 555.13701439 C-11.09256943 554.80701439 -11.42256943 554.47701439 -11.76256943 554.13701439 C-11.86620922 551.24021579 -11.90354952 548.36705821 -11.89958382 545.46961403 C-11.90223564 544.54472939 -11.90488747 543.61984475 -11.90761966 542.6669333 C-11.91535977 539.52668101 -11.91587361 536.38646751 -11.91646957 533.24620628 C-11.9204811 530.98851532 -11.92491879 528.73082507 -11.92974913 526.47313571 C-11.94175506 520.2369862 -11.94737235 514.00084444 -11.95193028 507.76468563 C-11.95726195 501.73995248 -11.96724041 495.71522804 -11.97693974 489.69050077 C-12.00259537 473.54126456 -12.01760997 457.39202357 -12.03045021 441.24277282 C-12.03470259 435.89544922 -12.03926825 430.54812597 -12.04403353 425.2008028 C-12.06929129 396.78819204 -12.09134646 368.37558072 -12.10376167 339.9629612 C-12.10668316 333.3770987 -12.10965064 326.79123622 -12.11266708 320.20537376 C-12.11303799 319.38713665 -12.1134089 318.56889954 -12.11379105 317.72586736 C-12.12595028 291.18847527 -12.1568992 264.65114945 -12.19858861 238.11378849 C-12.24134564 210.84723024 -12.2679988 183.580707 -12.27323639 156.31411432 C-12.27397688 152.46547678 -12.27488757 148.6168393 -12.27589417 144.76820183 C-12.27608478 144.01071898 -12.27627539 143.25323613 -12.27647179 142.47279926 C-12.27998989 130.26602476 -12.30030866 118.05933306 -12.3266908 105.85258901 C-12.35279529 93.58968945 -12.36057993 81.32688586 -12.34958951 69.06396249 C-12.34412768 62.4163344 -12.34741128 55.76891471 -12.37205505 49.12130928 C-12.39440596 43.04168197 -12.39391829 36.96251054 -12.37485118 30.88287601 C-12.37203121 28.67757634 -12.37775922 26.47224668 -12.39266412 24.26699558 C-12.41162615 21.28002685 -12.40007879 18.29470789 -12.38060188 15.30777931 C-12.3934511 14.44201893 -12.40630032 13.57625854 -12.41953892 12.68426299 C-12.35577316 8.26502258 -12.19649551 6.66461634 -9.2864424 3.12634158 C-8.45356432 2.46986361 -7.62068624 1.81338563 -6.76256943 1.13701439 C-4.98698762 -0.63856742 -2.40358263 0.00510851 0 0 Z " fill="#3B4452" transform="translate(755.7625694274902,181.8629856109619)"/>
<path d="M0 0 C7.15789474 -0.35789474 7.15789474 -0.35789474 10.5 1.0625 C12 3 12 3 12.5 6.4375 C12 10 12 10 10.5 12.4375 C6.86353539 14.71029038 4.24217465 14.28281164 0 14 C0 9.38 0 4.76 0 0 Z " fill="#35DFC1" transform="translate(878,357)"/>
<path d="M0 0 C2.4375 0.8125 2.4375 0.8125 4.4375 2.8125 C4.99755895 9.86924282 4.99755895 9.86924282 3.25 12.8125 C0.87754321 14.12144168 -0.8960118 14.02870175 -3.5625 13.8125 C-5.8922964 10.17219312 -5.9487557 7.06131273 -5.5625 2.8125 C-3.9058551 0.02236122 -3.24544844 -0.23747184 0 0 Z " fill="#D6DFDA" transform="translate(889.5625,677.1875)"/>
<path d="M0 0 C2.4375 0.8125 2.4375 0.8125 4.4375 2.8125 C4.99755895 9.86924282 4.99755895 9.86924282 3.25 12.8125 C0.87754321 14.12144168 -0.8960118 14.02870175 -3.5625 13.8125 C-5.8922964 10.17219312 -5.9487557 7.06131273 -5.5625 2.8125 C-3.9058551 0.02236122 -3.24544844 -0.23747184 0 0 Z " fill="#D6DFDA" transform="translate(810.5625,677.1875)"/>
<path d="M0 0 C2.5 0.25 2.5 0.25 4.5 2.25 C4.765625 4.30859375 4.765625 4.30859375 4.75 6.6875 C4.75515625 7.46996094 4.7603125 8.25242187 4.765625 9.05859375 C4.5 11.25 4.5 11.25 2.5 14.25 C0 14.5625 0 14.5625 -2.5 14.25 C-4.5 12.25 -4.5 12.25 -4.765625 9.9375 C-4.76046875 9.050625 -4.7553125 8.16375 -4.75 7.25 C-4.75515625 6.363125 -4.7603125 5.47625 -4.765625 4.5625 C-4.37662358 1.17589938 -3.36011494 0.33601149 0 0 Z " fill="#DFE0D4" transform="translate(799.5,676.75)"/>
<path d="M0 0 C2.5625 0.1875 2.5625 0.1875 4.5625 2.1875 C4.79296875 4.75390625 4.79296875 4.75390625 4.75 7.75 C4.74033203 9.23693359 4.74033203 9.23693359 4.73046875 10.75390625 C4.5625 13.1875 4.5625 13.1875 3.5625 14.1875 C0.625 14.375 0.625 14.375 -2.4375 14.1875 C-4.4375 12.1875 -4.4375 12.1875 -4.44921875 9.62109375 C-4.34222656 8.63238281 -4.23523438 7.64367187 -4.125 6.625 C-4.02574219 5.63371094 -3.92648437 4.64242188 -3.82421875 3.62109375 C-3.30945637 0.38173052 -3.27991141 0.25230088 0 0 Z " fill="#C0C9CD" transform="translate(888.4375,436.8125)"/>
<path d="M0 0 C2.5 0.25 2.5 0.25 4.5 2.25 C4.85449412 6.00763766 4.72919728 8.65154044 3.375 12.1875 C1.5 14.25 1.5 14.25 -1.6875 14.5625 C-2.615625 14.459375 -3.54375 14.35625 -4.5 14.25 C-4.5 13.59 -4.5 12.93 -4.5 12.25 C-3.695625 12.12625 -2.89125 12.0025 -2.0625 11.875 C-1.216875 11.66875 -0.37125 11.4625 0.5 11.25 C0.83 10.59 1.16 9.93 1.5 9.25 C-1.47 8.755 -1.47 8.755 -4.5 8.25 C-4.625 5.375 -4.625 5.375 -4.5 2.25 C-2.5 0.25 -2.5 0.25 0 0 Z " fill="#E2E1D7" transform="translate(973.5,436.75)"/>
<path d="M0 0 C0 0.66 0 1.32 0 2 C-0.804375 2.12375 -1.60875 2.2475 -2.4375 2.375 C-3.7059375 2.684375 -3.7059375 2.684375 -5 3 C-5.33 3.66 -5.66 4.32 -6 5 C-5.21625 4.95875 -4.4325 4.9175 -3.625 4.875 C-1 5 -1 5 1 7 C1.25 9.5 1.25 9.5 1 12 C-1 14 -1 14 -3.5 14.3125 C-4.7375 14.1578125 -4.7375 14.1578125 -6 14 C-8.53637054 10.19544419 -8.59473663 7.46052469 -8 3 C-5.95958596 -0.4364868 -3.79139375 -0.3074103 0 0 Z " fill="#D4E2E4" transform="translate(977,517)"/>
<path d="M0 0 C0.99 0 1.98 0 3 0 C4.65 4.62 6.3 9.24 8 14 C7.01 14 6.02 14 5 14 C5 13.01 5 12.02 5 11 C2.69 11 0.38 11 -2 11 C-2 11.99 -2 12.98 -2 14 C-2.99 14 -3.98 14 -5 14 C-4.54636829 12.41531323 -4.08688548 10.83230076 -3.625 9.25 C-3.36976563 8.36828125 -3.11453125 7.4865625 -2.8515625 6.578125 C-2.0790066 4.23919428 -1.16374324 2.16557438 0 0 Z " fill="#35E3BC" transform="translate(797,357)"/>
<path d="M0 0 C2.875 -0.125 2.875 -0.125 6 0 C8 2 8 2 8.25 5 C8 8 8 8 6 10 C2.875 10.125 2.875 10.125 0 10 C0 6.7 0 3.4 0 0 Z " fill="#395457" transform="translate(880,359)"/>
<path d="M0 0 C0.66 0 1.32 0 2 0 C2 2.97 2 5.94 2 9 C2.66 9.33 3.32 9.66 4 10 C3.34 10 2.68 10 2 10 C2 11.32 2 12.64 2 14 C1.34 14 0.68 14 0 14 C0 13.01 0 12.02 0 11 C-1.98 11 -3.96 11 -6 11 C-5.39096941 7.90694578 -4.40131197 5.80360238 -2.5625 3.25 C-2.13066406 2.63640625 -1.69882812 2.0228125 -1.25390625 1.390625 C-0.63322266 0.70226562 -0.63322266 0.70226562 0 0 Z " fill="#D6E6EE" transform="translate(805,517)"/>
<path d="M0 0 C2.64 0 5.28 0 8 0 C8 0.66 8 1.32 8 2 C6.35 2 4.7 2 3 2 C3 2.99 3 3.98 3 5 C3.9590625 5.2165625 3.9590625 5.2165625 4.9375 5.4375 C7 6 7 6 8 7 C8.1875 9.4375 8.1875 9.4375 8 12 C6 14 6 14 2.875 14.125 C1.451875 14.063125 1.451875 14.063125 0 14 C0 13.34 0 12.68 0 12 C1.65 11.67 3.3 11.34 5 11 C5 10.01 5 9.02 5 8 C3.35 7.67 1.7 7.34 0 7 C0 4.69 0 2.38 0 0 Z " fill="#CAD3D4" transform="translate(885,517)"/>
<path d="M0 0 C2.64 0 5.28 0 8 0 C8 0.33 8 0.66 8 1 C6.02 1 4.04 1 2 1 C2 2.65 2 4.3 2 6 C3.65 6 5.3 6 7 6 C7 6.66 7 7.32 7 8 C5.68 8 4.36 8 3 8 C3 9.32 3 10.64 3 12 C4.65 12 6.3 12 8 12 C8 12.66 8 13.32 8 14 C5.36 14 2.72 14 0 14 C0 9.38 0 4.76 0 0 Z " fill="#35D7BB" transform="translate(892,357)"/>
<path d="M0 0 C1.32 0 2.64 0 4 0 C5.36952673 2.73905345 5.12621361 4.97087332 5 8 C4.67 8.66 4.34 9.32 4 10 C2.35 9.67 0.7 9.34 -1 9 C-1.09765625 2.84765625 -1.09765625 2.84765625 -1 1 C-0.67 0.67 -0.34 0.34 0 0 Z " fill="#515765" transform="translate(887,679)"/>
<path d="M0 0 C1.32 0 2.64 0 4 0 C5.36952673 2.73905345 5.12621361 4.97087332 5 8 C4.67 8.66 4.34 9.32 4 10 C2.35 9.67 0.7 9.34 -1 9 C-1.09765625 2.84765625 -1.09765625 2.84765625 -1 1 C-0.67 0.67 -0.34 0.34 0 0 Z " fill="#515765" transform="translate(808,679)"/>
<path d="M0 0 C2.375 -0.125 2.375 -0.125 5 0 C5.66 0.66 6.32 1.32 7 2 C6.77870194 4.87687481 6.36521506 6.53951144 4.5625 8.8125 C3 10 3 10 1 10 C1 10.66 1 11.32 1 12 C2.98 12 4.96 12 7 12 C7 12.66 7 13.32 7 14 C4.03 14 1.06 14 -2 14 C-0.82570902 9.30283609 0.37759058 8.89792754 4 6 C4.86965506 3.87053397 4.86965506 3.87053397 5 2 C3.02 2.33 1.04 2.66 -1 3 C-0.67 2.01 -0.34 1.02 0 0 Z " fill="#E5E4D9" transform="translate(886,597)"/>
<path d="M0 0 C0 0.66 0 1.32 0 2 C-1.7015625 2.2165625 -1.7015625 2.2165625 -3.4375 2.4375 C-6.80777201 2.61171478 -6.80777201 2.61171478 -8 4 C-7.71269945 6.33944736 -7.38063221 8.6739143 -7 11 C-4.69 11.33 -2.38 11.66 0 12 C0 12.66 0 13.32 0 14 C-6.27586207 14.48275862 -6.27586207 14.48275862 -9.4375 12.375 C-11.47161336 9.28314769 -11.60605429 7.63632575 -11 4 C-8.02080717 -0.52837311 -5.15974216 -0.39690324 0 0 Z " fill="#35E2C2" transform="translate(816,357)"/>
<path d="M0 0 C2.475 0.495 2.475 0.495 5 1 C5 3.64 5 6.28 5 9 C3.35 9.33 1.7 9.66 0 10 C0 6.7 0 3.4 0 0 Z " fill="#424B62" transform="translate(797,679)"/>
<path d="M0 0 C2.12508244 3.18762365 2.5020163 5.26512223 3 9 C1.02 9 -0.96 9 -3 9 C-3 9.99 -3 10.98 -3 12 C-3.99 12 -4.98 12 -6 12 C-4.19444444 4.63888889 -4.19444444 4.63888889 -1 2 C-0.67 1.34 -0.34 0.68 0 0 Z " fill="#36D1B4" transform="translate(798,359)"/>
<path d="M0 0 C2.97 0 5.94 0 9 0 C7.46527032 4.72224516 5.76054874 9.35855331 4 14 C3.34 14 2.68 14 2 14 C4 5.42857143 4 5.42857143 6 2 C4.02 2 2.04 2 0 2 C0 1.34 0 0.68 0 0 Z " fill="#DAE1DC" transform="translate(800,437)"/>
<path d="M0 0 C0 4.62 0 9.24 0 14 C-0.66 14 -1.32 14 -2 14 C-2.33 10.7 -2.66 7.4 -3 4 C-3.66 4 -4.32 4 -5 4 C-5 3.34 -5 2.68 -5 2 C-1.125 0 -1.125 0 0 0 Z " fill="#CBE5EF" transform="translate(806,597)"/>
<path d="M0 0 C4.875 0.875 4.875 0.875 6 2 C6.1875 4.4375 6.1875 4.4375 6 7 C4 9 4 9 1.4375 9.1875 C-1 9 -1 9 -2 8 C-2.04063832 6.33382885 -2.042721 4.66611905 -2 3 C-1.01 4.485 -1.01 4.485 0 6 C2.05925139 6.72382467 2.05925139 6.72382467 4 7 C3.72965366 4.56282742 3.72965366 4.56282742 3 2 C2.01 1.34 1.02 0.68 0 0 Z " fill="#E9E5D9" transform="translate(972,522)"/>
<path d="M0 0 C0.66 0 1.32 0 2 0 C2 0.66 2 1.32 2 2 C2.66 2 3.32 2 4 2 C3.67 3.65 3.34 5.3 3 7 C1.35 7 -0.3 7 -2 7 C-2.33 5.35 -2.66 3.7 -3 2 C-2.34 2 -1.68 2 -1 2 C-0.67 1.34 -0.34 0.68 0 0 Z " fill="#35D3B1" transform="translate(1057,437)"/>
<path d="M0 0 C0.33 0.66 0.66 1.32 1 2 C0.67 2.66 0.34 3.32 0 4 C1.98 4 3.96 4 6 4 C6 4.66 6 5.32 6 6 C3.03 6 0.06 6 -3 6 C-2 2 -2 2 0 0 Z " fill="#C9D7DE" transform="translate(887,605)"/>
<path d="M0 0 C0.99 0 1.98 0 3 0 C3 1.98 3 3.96 3 6 C1.35 6 -0.3 6 -2 6 C-2 3 -2 3 0 0 Z " fill="#849CA7" transform="translate(803,520)"/>
<path d="M0 0 C1.65 0 3.3 0 5 0 C5 1.65 5 3.3 5 5 C3.35 4.67 1.7 4.34 0 4 C0 2.68 0 1.36 0 0 Z " fill="#464F67" transform="translate(971,524)"/>
<path d="M0 0 C2.475 0.495 2.475 0.495 5 1 C4.67 2.32 4.34 3.64 4 5 C2.68 5 1.36 5 0 5 C0 3.35 0 1.7 0 0 Z " fill="#434E63" transform="translate(971,439)"/>
<path d="M0 0 C0.33 1.32 0.66 2.64 1 4 C2.32 4.33 3.64 4.66 5 5 C3.68 5 2.36 5 1 5 C0.67 6.32 0.34 7.64 0 9 C0 8.01 0 7.02 0 6 C-1.32 6 -2.64 6 -4 6 C-4 5.34 -4 4.68 -4 4 C-2.68 4 -1.36 4 0 4 C0 2.68 0 1.36 0 0 Z " fill="#34EFCD" transform="translate(1057,601)"/>
<path d="M0 0 C1.65 0.33 3.3 0.66 5 1 C4.67 1.99 4.34 2.98 4 4 C2.35 3.67 0.7 3.34 -1 3 C-0.67 2.01 -0.34 1.02 0 0 Z " fill="#474F62" transform="translate(887,445)"/>
<path d="M0 0 C0.66 1.32 1.32 2.64 2 4 C0 6 0 6 -3.125 6.125 C-4.548125 6.063125 -4.548125 6.063125 -6 6 C-6 5.34 -6 4.68 -6 4 C-4.35 3.67 -2.7 3.34 -1 3 C-0.67 2.01 -0.34 1.02 0 0 Z " fill="#BFCAD5" transform="translate(975,445)"/>
<path d="M0 0 C1.74627478 2.61941217 2.38722388 4.03824877 3 7 C1.35 7 -0.3 7 -2 7 C-1.34 4.69 -0.68 2.38 0 0 Z " fill="#395762" transform="translate(798,359)"/>
</svg>
